<svg width="72" height="72" xmlns="http://www.w3.org/2000/svg"><g fill="#FF3B31" fill-rule="evenodd"><path d="M3.437 35.624c0-17.748 14.437-32.187 32.185-32.187 4.583 0 9.026.956 13.204 2.844l.37.168 1.648-3.024-.427-.196A35.268 35.268 0 0 0 35.622 0C15.979 0 0 15.98 0 35.624c0 12.15 6.127 23.352 16.392 29.963l.397.255 1.648-3.022-.34-.221c-9.182-5.986-14.66-16.07-14.66-26.975M67.808 35.624c0 17.747-14.437 32.186-32.187 32.186-3.982 0-7.884-.73-11.597-2.172l-.36-.138-1.656 3.036.459.184a35.342 35.342 0 0 0 13.154 2.527c19.643 0 35.626-15.98 35.626-35.623 0-11.438-5.577-22.264-14.92-28.962l-.403-.288-1.654 3.033.308.226c8.285 6.061 13.23 15.777 13.23 25.99"/><path d="M42.392 33.997a7.631 7.631 0 0 0-.37-.008h-2.12v3.458h2.12c.125 0 .248-.006.319-.01a4.444 4.444 0 0 1 4.113 4.42 4.435 4.435 0 0 1-4.431 4.429h-7.876l-1.876 3.438h9.752c4.338 0 7.867-3.53 7.867-7.867a7.867 7.867 0 0 0-2.952-6.141 7.866 7.866 0 0 0 2.952-6.139 7.869 7.869 0 0 0-2.763-5.976l-.41-.352-1.682 3.083.215.234a4.412 4.412 0 0 1 1.204 3.011c0 2.315-1.807 4.256-4.062 4.42M22.719 46.287v3.437h6.15V37.445h3.413l1.888-3.456h-5.307v-8.843H40.78V21.71h-18.06v3.437h2.71l-.022 21.141z"/></g></svg>